<svg xmlns="http://www.w3.org/2000/svg" width="179" height="179" viewBox="0 0 179 179">
  <metadata><?xpacket begin="﻿" id="W5M0MpCehiHzreSzNTczkc9d"?>
<x:xmpmeta xmlns:x="adobe:ns:meta/" x:xmptk="Adobe XMP Core 5.6-c138 79.159824, 2016/09/14-01:09:01        ">
   <rdf:RDF xmlns:rdf="http://www.w3.org/1999/02/22-rdf-syntax-ns#">
      <rdf:Description rdf:about=""/>
   </rdf:RDF>
</x:xmpmeta>
                                                                                                    
                                                                                                    
                                                                                                    
                                                                                                    
                                                                                                    
                                                                                                    
                                                                                                    
                                                                                                    
                                                                                                    
                                                                                                    
                                                                                                    
                                                                                                    
                                                                                                    
                                                                                                    
                                                                                                    
                                                                                                    
                                                                                                    
                                                                                                    
                                                                                                    
                                                                                                    
                           
<?xpacket end="w"?></metadata>
<defs>
    <style>
      .cls-1 {
        fill: #464646;
        fill-rule: evenodd;
      }
    </style>
  </defs>
  <path class="cls-1" d="M1252.5,3163a89.5,89.5,0,1,1,89.5-89.5A89.6,89.6,0,0,1,1252.5,3163Zm0-174.84a85.34,85.34,0,1,0,85.34,85.34A85.432,85.432,0,0,0,1252.5,2988.16Zm0,136.28a26.537,26.537,0,0,1-26.51-26.51h4.16a22.35,22.35,0,1,0,44.7,0h4.16A26.537,26.537,0,0,1,1252.5,3124.44Zm-40.82-79.26-12.69-12.69,2.95-2.94,12.68,12.68Zm-9.74,0-2.95-2.95,12.69-12.68,2.94,2.94Zm101.12,0-12.68-12.69,2.95-2.94,12.68,12.68Zm-9.73,0-2.95-2.95,12.68-12.68,2.95,2.94Z" transform="translate(-1163 -2984)"/>
</svg>
